# xmcd
#
# Track frame offsets:
#	150
#	12202
#	23935
#	42780
#	56750
#	77167
#	93397
#	105637
#	122115
#	137610
#
# Disc length: 2016 seconds
#
# Revision: 0
# Processed by: cddbd v1.5.1PL0 Copyright (c) Steve Scherf et al.
# Submitted via: MusicManager 7.0.3.0 
#
DISCID=7b07de0a
DTITLE=Blue Coyote - End Of The Line
DYEAR=1900
DGENRE=country
TTITLE0=End of the Line
TTITLE1=Good Bye Blues
TTITLE2=Crossroads
TTITLE3=Satan's Gold
TTITLE4=Early
TTITLE5=Broken Hearted Lover
TTITLE6=True True Love
TTITLE7=Salt Heart
TTITLE8=Weather The Storm
TTITLE9=Blue Coyote Moon
EXTD=
EXTT0=
EXTT1=
EXTT2=
EXTT3=
EXTT4=
EXTT5=
EXTT6=
EXTT7=
EXTT8=
EXTT9=
PLAYORDER=
